<svg width="48" height="48" viewBox="0 0 48 48" fill="none" xmlns="http://www.w3.org/2000/svg">
<rect width="48" height="48" rx="8" fill="#104499"/>
<path d="M30.9308 17.6416C29.6561 17.0567 28.2892 16.6258 26.8599 16.379C26.8339 16.3742 26.8079 16.3861 26.7945 16.4099C26.6187 16.7226 26.4239 17.1305 26.2876 17.4511C24.7503 17.221 23.221 17.221 21.7153 17.4511C21.5789 17.1234 21.3771 16.7226 21.2005 16.4099C21.1871 16.3869 21.1611 16.375 21.135 16.379C19.7066 16.625 18.3396 17.0559 17.0641 17.6416C17.0531 17.6464 17.0436 17.6543 17.0373 17.6646C14.4445 21.5383 13.7342 25.3167 14.0827 29.0483C14.0842 29.0665 14.0945 29.084 14.1087 29.0951C15.8193 30.3514 17.4764 31.114 19.1027 31.6196C19.1288 31.6275 19.1563 31.618 19.1729 31.5965C19.5576 31.0712 19.9005 30.5172 20.1946 29.9347C20.2119 29.9006 20.1954 29.8601 20.1599 29.8466C19.6159 29.6403 19.098 29.3887 18.5998 29.103C18.5604 29.08 18.5572 29.0236 18.5935 28.9966C18.6983 28.9181 18.8032 28.8363 18.9033 28.7538C18.9214 28.7387 18.9466 28.7356 18.9679 28.7451C22.2411 30.2395 25.7846 30.2395 29.0191 28.7451C29.0404 28.7348 29.0657 28.7379 29.0846 28.753C29.1847 28.8356 29.2895 28.9181 29.3952 28.9966C29.4314 29.0236 29.4291 29.08 29.3897 29.103C28.8914 29.3943 28.3735 29.6403 27.8288 29.8458C27.7933 29.8593 27.7775 29.9006 27.7949 29.9347C28.0952 30.5164 28.4381 31.0704 28.8157 31.5957C28.8315 31.618 28.8599 31.6275 28.8859 31.6196C30.5201 31.114 32.1772 30.3514 33.8879 29.0951C33.9028 29.084 33.9123 29.0673 33.9139 29.049C34.3309 24.7349 33.2154 20.9875 30.9568 17.6654C30.9513 17.6543 30.9419 17.6464 30.9308 17.6416ZM20.6834 26.7761C19.6979 26.7761 18.8859 25.8714 18.8859 24.7603C18.8859 23.6493 19.6822 22.7446 20.6834 22.7446C21.6924 22.7446 22.4965 23.6572 22.4807 24.7603C22.4807 25.8714 21.6845 26.7761 20.6834 26.7761ZM27.329 26.7761C26.3435 26.7761 25.5316 25.8714 25.5316 24.7603C25.5316 23.6493 26.3278 22.7446 27.329 22.7446C28.338 22.7446 29.1421 23.6572 29.1264 24.7603C29.1264 25.8714 28.338 26.7761 27.329 26.7761Z" fill="#FCFEFF"/>
</svg>
