<svg width="103" height="103" viewBox="0 0 103 103" fill="none" xmlns="http://www.w3.org/2000/svg">
<path d="M84.437 39.2428V84.4384C84.437 88.2784 81.3241 91.3913 77.4841 91.3913H63.5784V101.821L44.4578 91.3913H7.95284C4.1129 91.3913 1 88.2784 1 84.4384V39.2428C1 35.4029 4.1129 32.29 7.95284 32.29H77.4841C81.3241 32.29 84.437 35.4029 84.437 39.2428Z" fill="white" stroke="#0F367F" stroke-width="1.5" stroke-linecap="round" stroke-linejoin="round"/>
<g style="mix-blend-mode:multiply" opacity="0.3">
<path d="M84.437 39.2428V84.4384C84.437 88.2784 81.3241 91.3913 77.4841 91.3913H63.5784V101.821L44.4578 91.3913H7.95284C4.1129 91.3913 1 88.2784 1 84.4384V39.2428C1 35.4029 4.1129 32.29 7.95284 32.29H77.4841C81.3241 32.29 84.437 35.4029 84.437 39.2428Z" fill="#0066CC"/>
</g>
<path d="M101.82 7.95284V53.1485C101.82 56.9884 98.7069 60.1013 94.8669 60.1013H58.3635L39.2428 70.5313V60.1013H25.3371C21.4972 60.1013 18.3843 56.9884 18.3843 53.1485V7.95284C18.3843 4.11291 21.4972 1 25.3371 1H94.8684C98.7083 1 101.821 4.11291 101.821 7.95284H101.82Z" fill="white" stroke="#0F367F" stroke-width="1.5" stroke-linecap="round" stroke-linejoin="round"/>
<path d="M66.5567 30.5463C63.6179 32.2373 62.1697 33.3125 62.1697 36.5907V37.9219H55.3426C55.2183 37.2051 55.2183 36.1299 55.2183 35.4628C55.2183 30.3415 57.3701 28.2408 60.1832 26.5001C62.2106 25.2201 65.2314 24.2473 65.2314 22.0955C65.2314 19.9437 63.4102 18.7149 60.6381 18.7149C57.1624 18.7149 54.5966 20.5083 54.5966 24.6569H47.9758C47.9758 16.5645 53.1894 11.9551 60.72 11.9551C66.6781 11.9551 72.2237 14.9262 72.2237 21.4299C72.2237 26.2953 69.7413 28.6519 66.5553 30.5463H66.5567ZM54.8877 40.5857H62.5837V49.702H54.8877V40.5857Z" fill="white" stroke="#0F367F" stroke-width="1.5" stroke-linecap="round" stroke-linejoin="round"/>
<g opacity="0.1">
<path d="M66.5567 30.5463C63.6179 32.2373 62.1697 33.3125 62.1697 36.5907V37.9219H55.3426C55.2183 37.2051 55.2183 36.1299 55.2183 35.4628C55.2183 30.3415 57.3701 28.2408 60.1832 26.5001C62.2106 25.2201 65.2314 24.2473 65.2314 22.0955C65.2314 19.9437 63.4102 18.7149 60.6381 18.7149C57.1624 18.7149 54.5966 20.5083 54.5966 24.6569H47.9758C47.9758 16.5645 53.1894 11.9551 60.72 11.9551C66.6781 11.9551 72.2237 14.9262 72.2237 21.4299C72.2237 26.2953 69.7413 28.6519 66.5553 30.5463H66.5567ZM54.8877 40.5857H62.5837V49.702H54.8877V40.5857Z" fill="#0066CC"/>
</g>
</svg>
