<svg width="89" height="103" viewBox="0 0 89 103" fill="none" xmlns="http://www.w3.org/2000/svg">
<path d="M3.36253 11.91C1.67879 12.4088 0.625537 14.3486 1.12437 16.0323L25.8378 99.4587C26.3366 101.142 28.2764 102.196 29.9601 101.697C31.6438 101.198 32.6971 99.2583 32.1983 97.5746L7.48485 14.1482C6.98602 12.4644 5.04627 11.4112 3.36253 11.91Z" fill="white" stroke="#0F367F" stroke-width="1.5" stroke-linecap="round" stroke-linejoin="round"/>
<path d="M70.2382 2.06934C52.4529 16.9012 25.3243 -0.4965 8.70337 18.2631L23.9419 69.7043C40.5628 50.9447 67.6914 68.3424 85.4767 53.5105C87.1254 52.2086 87.8466 49.1454 87.2921 47.2758C82.8597 32.3109 78.4814 17.5331 74.0489 2.56964C73.4945 0.69865 71.8327 0.581622 70.2382 2.0708V2.06934Z" fill="white" stroke="#0F367F" stroke-width="1.5" stroke-linecap="round" stroke-linejoin="round"/>
<path d="M24.3252 23.6055C20.0785 25.0668 16.0527 27.2772 12.5814 31.3571C11.2517 26.8676 9.97751 22.5654 8.7019 18.2631C12.2288 14.3705 16.1976 11.9729 20.4457 10.5115L24.3252 23.6055Z" fill="white" stroke="#0F367F" stroke-width="1.5" stroke-linecap="round" stroke-linejoin="round"/>
<path d="M41.5546 34.3721C36.9203 34.5242 32.3401 34.8636 28.0934 36.325C26.8193 32.0227 25.5451 27.7205 24.2695 23.4182C28.5162 21.9569 33.0964 21.6175 37.7307 21.4653L41.5546 34.3721Z" fill="white" stroke="#0F367F" stroke-width="1.5" stroke-linecap="round" stroke-linejoin="round"/>
<path d="M70.1827 1.88214C67.3901 4.13347 64.4322 5.82307 61.252 6.76514L65.0758 19.6719C69.3225 18.2105 73.3483 16.0001 76.8196 11.9202C75.8775 8.73999 74.9355 5.55975 73.9934 2.38098C73.4946 0.697234 71.8313 0.580206 70.1827 1.88214Z" fill="white" stroke="#0F367F" stroke-width="1.5" stroke-linecap="round" stroke-linejoin="round"/>
<path d="M68.8998 32.5801C64.6531 34.0415 60.073 34.3808 55.4386 34.533C54.1645 30.2307 52.8904 25.9285 51.6147 21.6262C56.2491 21.4741 60.8292 21.1347 65.0759 19.6733L68.8998 32.5801Z" fill="white" stroke="#0F367F" stroke-width="1.5" stroke-linecap="round" stroke-linejoin="round"/>
<path d="M51.6145 21.6263C46.9802 21.7785 42.2347 21.5561 37.5434 21.521C36.2692 17.2188 34.9951 12.9165 33.7195 8.61426C38.4094 8.64937 43.1549 8.87172 47.7906 8.71958L51.6145 21.6263Z" fill="white" stroke="#0F367F" stroke-width="1.5" stroke-linecap="round" stroke-linejoin="round"/>
<path d="M31.9173 49.2317C27.6706 50.6931 23.6449 52.9035 20.1735 56.9833C18.8994 52.6811 17.6252 48.3788 16.3496 44.0766C19.8765 40.184 23.8453 37.7863 28.0934 36.325L31.9173 49.2317Z" fill="white" stroke="#0F367F" stroke-width="1.5" stroke-linecap="round" stroke-linejoin="round"/>
<path d="M49.2008 60.187C44.5665 60.3391 39.9863 60.6785 35.7397 62.1399C34.4655 57.8377 33.1914 53.5354 31.9158 49.2332C36.1624 47.7718 40.7426 47.4324 45.3769 47.2803L49.2008 60.187Z" fill="white" stroke="#0F367F" stroke-width="1.5" stroke-linecap="round" stroke-linejoin="round"/>
<path d="M84.4659 37.7351C80.9389 41.6278 76.9702 44.0254 72.7221 45.4868C71.4479 41.1845 70.1738 36.8823 68.8982 32.58C73.1449 31.1186 77.1706 28.9083 80.642 24.8284L84.4659 37.7351Z" fill="white" stroke="#0F367F" stroke-width="1.5" stroke-linecap="round" stroke-linejoin="round"/>
<path d="M76.546 58.3936C72.2994 59.8549 67.7192 60.1943 63.0849 60.3465L59.261 47.4397C63.8953 47.2876 68.4755 46.9482 72.7221 45.4868L76.546 58.3936Z" fill="white" stroke="#0F367F" stroke-width="1.5" stroke-linecap="round" stroke-linejoin="round"/>
<path d="M59.261 47.4397C54.6267 47.5919 49.8812 47.3695 45.1899 47.3344C43.9157 43.0322 42.6416 38.7299 41.366 34.4277C46.0003 34.2755 50.7458 34.4979 55.4371 34.533L59.261 47.4397Z" fill="white" stroke="#0F367F" stroke-width="1.5" stroke-linecap="round" stroke-linejoin="round"/>
<g style="mix-blend-mode:multiply" opacity="0.3">
<path d="M24.3252 23.6055C20.0785 25.0668 16.0527 27.2772 12.5814 31.3571C11.2517 26.8676 9.97751 22.5654 8.7019 18.2631C12.2288 14.3705 16.1976 11.9729 20.4457 10.5115L24.3252 23.6055Z" fill="#0066CC"/>
<path d="M41.5546 34.3721C36.9203 34.5242 32.3401 34.8636 28.0934 36.325C26.8193 32.0227 25.5451 27.7205 24.2695 23.4182C28.5162 21.9569 33.0964 21.6175 37.7307 21.4653L41.5546 34.3721Z" fill="#0066CC"/>
<path d="M70.1827 1.88214C67.3901 4.13347 64.4322 5.82307 61.252 6.76514L65.0758 19.6719C69.3225 18.2105 73.3483 16.0001 76.8196 11.9202C75.8775 8.73999 74.9355 5.55975 73.9934 2.38098C73.4946 0.697234 71.8313 0.580206 70.1827 1.88214Z" fill="#0066CC"/>
<path d="M68.8998 32.5801C64.6531 34.0415 60.073 34.3808 55.4386 34.533C54.1645 30.2307 52.8904 25.9285 51.6147 21.6262C56.2491 21.4741 60.8292 21.1347 65.0759 19.6733L68.8998 32.5801Z" fill="#0066CC"/>
<path d="M51.6145 21.6263C46.9802 21.7785 42.2347 21.5561 37.5434 21.521C36.2692 17.2188 34.9951 12.9165 33.7195 8.61426C38.4094 8.64937 43.1549 8.87172 47.7906 8.71958L51.6145 21.6263Z" fill="#0066CC"/>
<path d="M31.9173 49.2317C27.6706 50.6931 23.6449 52.9035 20.1735 56.9833C18.8994 52.6811 17.6252 48.3788 16.3496 44.0766C19.8765 40.184 23.8453 37.7863 28.0934 36.325L31.9173 49.2317Z" fill="#0066CC"/>
<path d="M49.2008 60.187C44.5665 60.3391 39.9863 60.6785 35.7397 62.1399C34.4655 57.8377 33.1914 53.5354 31.9158 49.2332C36.1624 47.7718 40.7426 47.4324 45.3769 47.2803L49.2008 60.187Z" fill="#0066CC"/>
<path d="M84.4659 37.7351C80.9389 41.6278 76.9702 44.0254 72.7221 45.4868C71.4479 41.1845 70.1738 36.8823 68.8982 32.58C73.1449 31.1186 77.1706 28.9083 80.642 24.8284L84.4659 37.7351Z" fill="#0066CC"/>
<path d="M76.546 58.3936C72.2994 59.8549 67.7192 60.1943 63.0849 60.3465L59.261 47.4397C63.8953 47.2876 68.4755 46.9482 72.7221 45.4868L76.546 58.3936Z" fill="#0066CC"/>
<path d="M59.261 47.4397C54.6267 47.5919 49.8812 47.3695 45.1899 47.3344C43.9157 43.0322 42.6416 38.7299 41.366 34.4277C46.0003 34.2755 50.7458 34.4979 55.4371 34.533L59.261 47.4397Z" fill="#0066CC"/>
</g>
</svg>
