<svg width="49" height="48" viewBox="0 0 49 48" fill="none" xmlns="http://www.w3.org/2000/svg">
<rect x="0.666016" width="48" height="48" rx="8" fill="#104499"/>
<path d="M16.2494 21.2367H19.3665V31.2114H16.2494V21.2367Z" fill="#FCFEFF"/>
<path d="M19.5151 17.1199C19.6038 17.3383 19.6486 17.5721 19.647 17.8079V17.864C19.6413 18.0998 19.5893 18.3322 19.4938 18.5479C19.3983 18.7635 19.2612 18.9583 19.0904 19.121C18.9196 19.2837 18.7185 19.4111 18.4984 19.496C18.2783 19.5809 18.0437 19.6216 17.8079 19.6158C17.3284 19.6158 16.8686 19.4254 16.5295 19.0863C16.1905 18.7473 16 18.2874 16 17.8079C16 17.3284 16.1905 16.8686 16.5295 16.5295C16.8686 16.1905 17.3284 16 17.8079 16H17.864C18.0998 16.0016 18.333 16.0497 18.5502 16.1414C18.7674 16.2332 18.9644 16.3668 19.13 16.5347C19.2955 16.7026 19.4264 16.9014 19.5151 17.1199Z" fill="#FCFEFF"/>
<path d="M27.4086 20.9874C29.3038 20.9874 31.2114 22.1531 31.2114 25.1518L31.1865 31.2114H28.0694V25.8687C28.0694 24.2977 27.3338 23.6743 26.3425 23.6743H26.2241C25.6812 23.725 25.1803 23.9878 24.8301 24.4057C24.4799 24.8236 24.3088 25.3628 24.3538 25.9061V31.2114H21.2367V21.2367H24.1668V22.5958H24.2541C24.5934 22.0753 25.0632 21.6529 25.6167 21.3707C26.1702 21.0884 26.788 20.9563 27.4086 20.9874Z" fill="#FCFEFF"/>
</svg>
