<svg width="140" height="32" viewBox="0 0 140 32" fill="none" xmlns="http://www.w3.org/2000/svg">
    <path d="M46.5973 11.7203C46.1547 12.8919 45.6952 13.9775 45.2342 15.1888H45.1355C44.676 13.9775 44.2531 12.8919 43.8217 11.7203L42.3824 8.12598H38.4805L43.341 18.1925V23.7732H46.9878V18.1925L51.8484 8.12598H48.0423L46.5973 11.7203Z" fill="white"/>
    <path d="M55.0865 8.12598C53.8657 8.12598 52.9805 8.88886 52.9805 9.97029C52.9805 11.0517 53.8657 11.816 55.0865 11.816C56.3073 11.816 57.1926 11.0449 57.1926 9.97029C57.1926 8.8957 56.3073 8.12598 55.0865 8.12598Z" fill="white"/>
    <path d="M56.902 13.0225H53.2637V23.7739H56.902V13.0225Z" fill="white"/>
    <path d="M65.1732 11.5742C62.2228 11.5742 59.3809 13.9586 59.3809 17.8222C59.3809 21.7651 62.0917 24.0606 65.5919 24.0606C67.1486 24.0331 68.6631 23.565 69.9492 22.7139L68.7425 20.5921C67.8516 21.0979 67.0156 21.3714 66.0867 21.3714C64.4472 21.3714 63.2279 20.5784 62.9008 18.8503H70.248C70.3511 18.3364 70.4017 17.8139 70.3988 17.2904C70.4031 14.0406 68.6706 11.5742 65.1732 11.5742ZM62.8642 16.5165C63.1123 15.0127 64.1047 14.2634 65.2606 14.2634C66.7126 14.2634 67.3004 15.2068 67.3004 16.5165H62.8642Z" fill="white"/>
    <path d="M87.3364 11.0121L87.4675 12.8167C86.6372 12.0621 85.8111 11.574 84.4564 11.574C81.8711 11.574 79.3633 13.9269 79.3633 17.822C79.3633 21.717 81.3368 24.0604 84.3859 24.0604C85.5715 24.0604 86.7824 23.4342 87.6535 22.592H87.7438L88.006 23.7732H90.9747V8.12598H87.3364V11.0121ZM87.3364 20.1065C86.733 20.8885 86.1071 21.1729 85.3332 21.1729C83.9236 21.1729 83.0919 20.1202 83.0919 17.7823C83.0919 15.5169 84.1251 14.4614 85.3036 14.4614C86.0548 14.4553 86.7808 14.7244 87.3364 15.2148V20.1065Z" fill="white"/>
    <path d="M103.326 8.12598L98.2598 23.7732H101.988L102.985 20.045H107.905L108.891 23.7732H112.753L107.678 8.12598H103.326ZM103.721 17.2956L104.108 15.8478C104.557 14.2837 104.988 12.4531 105.377 10.8015H105.477C105.9 12.4339 106.339 14.2837 106.787 15.8478L107.173 17.2956H103.721Z" fill="white"/>
    <path d="M121.024 11.5742C119.742 11.5742 118.486 12.2004 117.526 13.0344H117.436L117.174 11.8627H114.205V27.2912H117.843V24.7018L117.722 22.8178C118.6 23.6122 119.594 24.0606 120.65 24.0606C123.31 24.0606 125.817 21.7173 125.817 17.6349C125.817 13.964 124.002 11.5742 121.024 11.5742ZM119.803 21.1731C119.076 21.1665 118.378 20.898 117.843 20.4198V15.5294C118.562 14.7871 119.207 14.4617 119.958 14.4617C121.411 14.4617 122.092 15.5322 122.092 17.6691C122.088 20.1341 121.072 21.1731 119.803 21.1731Z" fill="white"/>
    <path d="M135.205 11.5742C133.924 11.5742 132.668 12.2004 131.708 13.0344H131.613L131.351 11.8627H128.387V27.2912H132.026V24.7018L131.904 22.8178C132.783 23.6122 133.776 24.0606 134.833 24.0606C137.492 24.0606 140 21.7173 140 17.6349C140 13.964 138.178 11.5742 135.205 11.5742ZM133.985 21.1731C133.258 21.1664 132.56 20.8979 132.026 20.4198V15.5294C132.745 14.7871 133.388 14.4617 134.141 14.4617C135.593 14.4617 136.274 15.5322 136.274 17.6691C136.265 20.1341 135.255 21.1731 133.985 21.1731Z" fill="white"/>
    <path d="M78.0923 23.7664L78.6985 23.5217L77.6581 21.1647C77.5127 21.201 77.3628 21.2171 77.2127 21.2125C76.9167 21.2125 76.5544 20.9719 76.5544 20.2159V8.12598H72.916V20.071C72.916 22.4813 73.7703 24.0604 76.2668 24.0604C76.8482 24.0748 77.4276 23.9892 77.9781 23.8074L78.0923 23.7609V23.7664Z" fill="white"/>
    <path d="M32.3872 16.0018C32.3872 24.8378 25.1372 31.9977 16.1943 31.9977C7.25134 31.9977 0 24.8337 0 16.0018C0 7.16983 7.24993 0.00585938 16.1943 0.00585938C25.1387 0.00585938 32.3872 7.16573 32.3872 16.0018Z" fill="white"/>
    <path d="M18.4631 15.109L10.7367 21.8942C10.4548 22.139 10.1926 22.3481 9.93744 22.5423L7.35352 24.6505C8.57993 25.1071 10.5788 25.3764 12.7356 23.6934L19.784 17.4427C20.2379 17.0914 20.9625 16.7441 21.5841 16.7441C21.9368 16.7473 22.2853 16.8179 22.6099 16.9517C22.9344 17.0856 23.2286 17.2802 23.4756 17.5243C23.7226 17.7684 23.9176 18.0574 24.0495 18.3746C24.1814 18.6918 24.2475 19.0312 24.2442 19.3732C24.2477 19.7159 24.1815 20.0559 24.0492 20.3737C23.917 20.6916 23.7214 20.981 23.4736 21.2253C23.2259 21.4697 22.9308 21.6642 22.6053 21.7978C22.2799 21.9314 21.9305 22.0013 21.5771 22.0036C20.3408 22.0036 19.5725 21.4417 19.0397 20.2085L16.9181 21.9312C17.5793 23.152 18.9255 24.6286 21.5771 24.6286C24.5163 24.6286 26.8986 22.2743 26.8986 19.3704C26.8986 16.4666 24.5163 14.1123 21.5771 14.1123C20.4558 14.1124 19.3642 14.4618 18.4631 15.109Z" fill="#0F367F"/>
    <path d="M19.6532 8.30567L12.6119 14.5564C12.1594 14.9077 11.4334 15.255 10.8131 15.255C10.1008 15.2485 9.42026 14.9679 8.92117 14.4749C8.42208 13.9819 8.14531 13.3168 8.15169 12.6259C8.14606 11.9355 8.42317 11.2712 8.92218 10.7787C9.42118 10.2863 10.1013 10.0061 10.8131 9.9996C12.0086 9.9996 12.7655 10.5273 13.297 11.6785L15.4002 9.94627C14.7151 8.75137 13.3731 7.37053 10.8131 7.37053C7.87258 7.37053 5.49023 9.7248 5.49023 12.6287C5.49023 15.5325 7.87258 17.8882 10.8131 17.8882C11.9336 17.8885 13.0246 17.5401 13.9257 16.8942L21.6521 10.109C21.934 9.86424 22.1962 9.65507 22.4514 9.46093L25.0353 7.35276C23.8089 6.89339 21.81 6.62405 19.6532 8.30567Z" fill="#0F367F"/>
</svg>