<svg width="183" height="44" viewBox="0 0 183 44" fill="none" xmlns="http://www.w3.org/2000/svg">
<path d="M60.9306 15.7933C60.352 17.3724 59.7513 18.8336 59.1488 20.4662H59.0198C58.4191 18.8336 57.8681 17.3724 57.3043 15.7933L55.4211 10.949H50.3225L56.6741 24.5071V32.0269H61.441V24.5071L67.7944 10.9416H62.8193L60.9306 15.7933Z" fill="white"/>
<path d="M72.0251 10.9489C70.4312 10.9489 69.2832 11.9771 69.2832 13.4365C69.2832 14.8959 70.4404 15.9222 72.0343 15.9222C73.6281 15.9222 74.7872 14.8811 74.7872 13.4365C74.7872 11.9919 73.6208 10.9489 72.0251 10.9489Z" fill="white"/>
<path d="M74.3984 17.5456H69.6426V32.0324H74.3984V17.5456Z" fill="white"/>
<path d="M85.2091 15.5961C81.3525 15.5961 77.6377 18.8078 77.6377 24.0151C77.6377 29.3275 81.1811 32.4231 85.7564 32.4231C87.79 32.3875 89.769 31.7586 91.4501 30.6136L89.8784 27.7465C88.7138 28.4282 87.6211 28.7968 86.4087 28.7968C84.2657 28.7968 82.6718 27.7299 82.2443 25.4008H91.8463C91.9818 24.7089 92.0484 24.0052 92.0453 23.3002C92.0453 18.9184 89.7807 15.5961 85.2091 15.5961ZM82.1927 22.2554C82.5152 20.2285 83.8124 19.2206 85.316 19.2206C87.2139 19.2206 87.9823 20.492 87.9823 22.2554H82.1927Z" fill="white"/>
<path d="M114.174 14.8388L114.345 17.271C113.26 16.2539 112.18 15.5961 110.409 15.5961C107.03 15.5961 103.754 18.7654 103.754 24.0151C103.754 29.2648 106.33 32.4305 110.319 32.4305C111.867 32.4305 113.451 31.5847 114.588 30.4515H114.706L115.049 32.0417H118.93V10.9489H114.174V14.8388ZM114.174 27.0923C113.385 28.1463 112.569 28.5314 111.555 28.5314C109.713 28.5314 108.627 27.1126 108.627 23.9617C108.627 20.9103 109.978 19.4877 111.519 19.4877C112.5 19.4794 113.448 19.842 114.174 20.503V27.0923Z" fill="white"/>
<path d="M135.066 10.9489L128.45 32.0343H133.322L134.625 27.0112H141.054L142.344 32.0343H147.389L140.778 10.9489H135.066ZM135.581 23.3075L136.088 21.3562C136.674 19.2482 137.236 16.7809 137.747 14.555H137.876C138.439 16.7551 139.001 19.2482 139.587 21.3562L140.092 23.3075H135.581Z" fill="white"/>
<path d="M158.198 15.5961C156.525 15.5961 154.881 16.44 153.628 17.564H153.51L153.168 15.9831H149.298V36.7754H154.045V33.2854L153.886 30.7481C155.034 31.8169 156.331 32.4231 157.713 32.4231C161.189 32.4231 164.465 29.263 164.465 23.7627C164.463 18.8078 162.084 15.5961 158.198 15.5961ZM156.604 28.5314C155.654 28.5217 154.742 28.1599 154.043 27.5161V20.925C154.983 19.9245 155.823 19.4878 156.807 19.4878C158.705 19.4878 159.595 20.9287 159.595 23.8088C159.589 27.131 158.263 28.5314 156.604 28.5314Z" fill="white"/>
<path d="M176.735 15.5961C175.06 15.5961 173.418 16.44 172.165 17.564H172.047L171.705 15.9831H167.824V36.7754H172.58V33.2854L172.42 30.7481C173.577 31.8169 174.867 32.4305 176.249 32.4305C179.722 32.4305 183 29.2703 183 23.7701C183 18.8078 180.621 15.5961 176.735 15.5961ZM175.139 28.5314C174.19 28.5215 173.278 28.1598 172.58 27.5161V20.925C173.52 19.9245 174.36 19.4878 175.344 19.4878C177.242 19.4878 178.132 20.9287 178.132 23.8088C178.126 27.131 176.798 28.5314 175.139 28.5314Z" fill="white"/>
<path d="M102.091 32.0269L102.884 31.6971L101.529 28.5185C101.34 28.5687 101.143 28.5911 100.947 28.5849C100.558 28.5849 100.087 28.2606 100.087 27.2397V10.9489H95.3271V27.0463C95.3271 30.293 96.4327 32.4231 99.7053 32.4231C100.465 32.4433 101.222 32.3285 101.942 32.084L102.091 32.0214V32.0269Z" fill="white"/>
<path d="M21.1646 0C9.4767 0 0 9.65359 0 21.5589C0 33.4642 9.4767 43.1178 21.1646 43.1178C32.8524 43.1178 42.3291 33.4642 42.3291 21.5589C42.3291 9.65359 32.8543 0 21.1646 0ZM7.1863 17.0131C7.1863 13.0993 10.2985 9.92815 14.1404 9.92815C17.4848 9.92815 19.239 11.7892 20.1345 13.3978L17.3798 15.7325C16.6814 14.1883 15.6938 13.4697 14.1312 13.4697C13.1914 13.4697 12.2902 13.843 11.6257 14.5075C10.9611 15.1721 10.5878 16.0733 10.5878 17.0131C10.5878 17.9529 10.9611 18.8541 11.6257 19.5187C12.2902 20.1832 13.1914 20.5565 14.1312 20.5565C14.9438 20.5565 15.8891 20.0885 16.4806 19.6149L25.6938 11.1904C28.5112 8.92575 31.1222 9.28691 32.7271 9.90051L29.3404 12.7437C29.0087 13.0054 28.6641 13.2854 28.2974 13.6171L18.2016 22.7603C17.0235 23.6316 15.5965 24.1013 14.1312 24.0999C10.2893 24.0999 7.1863 20.925 7.1863 17.0131ZM28.1924 33.1933C24.7301 33.1933 22.9685 31.1978 22.1117 29.5523L24.8756 27.2305C25.5759 28.8889 26.5782 29.6499 28.1924 29.6499C29.1184 29.6288 29.9994 29.2461 30.6469 28.5837C31.2943 27.9213 31.6568 27.0319 31.6568 26.1056C31.6568 25.1794 31.2943 24.2899 30.6469 23.6275C29.9994 22.9651 29.1184 22.5824 28.1924 22.5613C27.7584 22.5757 27.3314 22.6753 26.9357 22.8543C26.5446 23.0224 26.1773 23.2411 25.843 23.5047L16.6298 31.9274C13.8124 34.1939 11.2014 33.8327 9.60016 33.2173L12.9759 30.3759C13.3094 30.1161 13.6521 29.8342 14.0188 29.5044L24.1386 20.3593C25.3118 19.491 26.7328 19.0221 28.1924 19.0216C32.0343 19.0216 35.1502 22.1928 35.1502 26.1065C35.1502 30.0203 32.0398 33.1933 28.1924 33.1933Z" fill="white"/>
</svg>
