<svg width="94" height="103" viewBox="0 0 94 103" fill="none" xmlns="http://www.w3.org/2000/svg">
<path d="M66.0115 64.5033L80.5266 69.9148C87.9651 72.68 92.8904 79.7908 92.8904 87.7315V96.1515C92.8904 99.3771 90.2791 101.999 87.0498 101.999H6.84063C3.61862 101.999 1 99.3785 1 96.1515V87.7315C1 79.7908 5.93261 72.68 13.3711 69.9148L27.8994 64.4959H27.9053" fill="white"/>
<path d="M66.0115 64.5033L80.5266 69.9148C87.9651 72.68 92.8904 79.7908 92.8904 87.7315V96.1515C92.8904 99.3771 90.2791 101.999 87.0498 101.999H6.84063C3.61862 101.999 1 99.3785 1 96.1515V87.7315C1 79.7908 5.93261 72.68 13.3711 69.9148L27.8994 64.4959H27.9053" stroke="#0F367F" stroke-width="1.5" stroke-linecap="round" stroke-linejoin="round"/>
<g style="mix-blend-mode:multiply" opacity="0.3">
<path d="M66.0115 64.5033L80.5266 69.9148C87.9651 72.68 92.8904 79.7908 92.8904 87.7315V96.1515C92.8904 99.3771 90.2791 101.999 87.0498 101.999H6.84063C3.61862 101.999 1 99.3785 1 96.1515V87.7315C1 79.7908 5.93261 72.68 13.3711 69.9148L27.8994 64.4959H27.9053" fill="#0066CC"/>
</g>
<path d="M57.8758 58.3675C57.8758 58.3675 57.8758 58.3543 57.8699 58.3484C57.8641 58.3293 57.8641 58.322 57.8567 58.2956V58.2897C57.5404 56.7957 57.3632 55.1097 57.2709 53.4177V53.4119L36.6075 54.2197C36.5153 55.6404 36.3439 57.0552 36.0349 58.3059V58.3176L36.0159 58.4026" fill="white"/>
<path d="M57.8758 58.3675C57.8758 58.3675 57.8758 58.3543 57.8699 58.3484C57.8641 58.3293 57.8641 58.322 57.8567 58.2956V58.2897C57.5404 56.7957 57.3632 55.1097 57.2709 53.4177V53.4119L36.6075 54.2197C36.5153 55.6404 36.3439 57.0552 36.0349 58.3059V58.3176L36.0159 58.4026" stroke="#0F367F" stroke-width="1.5" stroke-linecap="round" stroke-linejoin="round"/>
<path d="M57.8582 58.2897L57.8055 64.254C46.2018 73.6491 36.0876 64.254 36.0876 64.254L36.0349 58.2897" fill="white"/>
<path d="M57.8582 58.2897L57.8055 64.254C46.2018 73.6491 36.0876 64.254 36.0876 64.254L36.0349 58.2897" stroke="#0F367F" stroke-width="1.5" stroke-linecap="round" stroke-linejoin="round"/>
<path d="M62.6504 20.5526C62.1086 15.0149 56.924 11.7513 51.9504 10.8511C47.3019 10.0095 42.3854 10.2514 37.9493 11.9507C34.4402 13.2951 31.082 17.2009 31.0762 21.1214H31.0103V42.5756H31.0161C31.6342 45.5328 32.4953 49.1249 33.5732 50.9575C34.0155 51.7009 34.8781 52.6172 35.8989 53.538C38.1294 55.5524 41.0922 57.5933 41.9358 57.9496C43.1587 58.4701 44.2205 58.8454 46.5184 58.8454C48.8163 58.8454 49.8693 58.4701 51.0937 57.9496C51.9577 57.5875 55.0157 55.4747 57.2594 53.4192V53.4133C58.2246 52.538 59.0345 51.6686 59.4548 50.9575C59.7667 50.4239 60.067 49.7465 60.3379 48.9694C61.0175 47.0928 61.5755 44.6707 62.0104 42.577L62.6519 20.554L62.6504 20.5526Z" fill="white" stroke="#0F367F" stroke-width="1.5" stroke-linecap="round" stroke-linejoin="round"/>
<path d="M26.1245 20.1039C27.0443 9.40103 36.0146 1 46.9446 1C57.8745 1 66.8464 9.40103 67.7647 20.1039" stroke="#0F367F" stroke-width="1.5" stroke-linecap="round" stroke-linejoin="round"/>
<path d="M29.1076 43.6209H20.9457C19.8941 43.6209 19.0403 42.7926 19.0403 41.7707V21.9557C19.0403 20.9338 19.8927 20.1054 20.9457 20.1054H29.1076C30.1592 20.1054 31.013 20.9338 31.013 21.9557V41.7721C31.013 42.794 30.1606 43.6224 29.1076 43.6224V43.6209Z" fill="white" stroke="#0F367F" stroke-width="1.5" stroke-linecap="round" stroke-linejoin="round"/>
<path d="M72.8055 43.6209H64.0518C62.9241 43.6209 62.0088 42.7926 62.0088 41.7707V21.9557C62.0088 20.9338 62.9241 20.1054 64.0518 20.1054H72.8055C73.9332 20.1054 74.8485 20.9338 74.8485 21.9557V41.7721C74.8485 42.794 73.9332 43.6224 72.8055 43.6224V43.6209Z" fill="white" stroke="#0F367F" stroke-width="1.5" stroke-linecap="round" stroke-linejoin="round"/>
<path opacity="0.1" d="M29.1076 43.6209H20.9457C19.8941 43.6209 19.0403 42.7926 19.0403 41.7707V21.9557C19.0403 20.9338 19.8927 20.1054 20.9457 20.1054H29.1076C30.1592 20.1054 31.013 20.9338 31.013 21.9557V41.7721C31.013 42.794 30.1606 43.6224 29.1076 43.6224V43.6209Z" fill="#0066CC"/>
<path opacity="0.1" d="M72.8055 43.6209H64.0518C62.9241 43.6209 62.0088 42.7926 62.0088 41.7707V21.9557C62.0088 20.9338 62.9241 20.1054 64.0518 20.1054H72.8055C73.9332 20.1054 74.8485 20.9338 74.8485 21.9557V41.7721C74.8485 42.794 73.9332 43.6224 72.8055 43.6224V43.6209Z" fill="#0066CC"/>
<path d="M46.9473 53.667C48.8069 53.667 50.3143 52.1579 50.3143 50.2963C50.3143 48.4347 48.8069 46.9256 46.9473 46.9256C45.0878 46.9256 43.5803 48.4347 43.5803 50.2963C43.5803 52.1579 45.0878 53.667 46.9473 53.667Z" fill="white" stroke="#0F367F" stroke-width="1.5" stroke-linecap="round" stroke-linejoin="round"/>
<path opacity="0.1" d="M46.9473 53.667C48.8069 53.667 50.3143 52.1579 50.3143 50.2963C50.3143 48.4347 48.8069 46.9256 46.9473 46.9256C45.0878 46.9256 43.5803 48.4347 43.5803 50.2963C43.5803 52.1579 45.0878 53.667 46.9473 53.667Z" fill="#0066CC"/>
<path d="M67.2798 43.6224C65.6088 45.8348 63.1762 47.6851 60.25 48.968C57.3897 50.2318 54.0476 50.9561 50.4902 50.9561C50.4316 50.9561 50.3716 50.9561 50.313 50.9502" stroke="#0F367F" stroke-width="1.5" stroke-linecap="round" stroke-linejoin="round"/>
<path d="M40.8754 99.122L42.8261 102H44.7901C43.721 98.7202 42.7002 95.4742 41.7673 92.2809C41.7555 92.2809 41.7673 92.2692 41.7673 92.2692C38.0942 79.7805 35.6908 68.1144 36.0365 58.2883L27.422 64.861C26.1537 65.8184 26.2752 67.7684 27.6563 68.5601L29.1033 69.3958L25.3306 72.6932C24.4856 73.4277 24.3171 74.6871 24.9527 75.624L40.8783 99.1205L40.8754 99.122Z" fill="white" stroke="#0F367F" stroke-width="1.5" stroke-linecap="round" stroke-linejoin="round"/>
<path d="M49.1179 102H51.076L53.018 99.1337L68.9553 75.6255C69.5894 74.6901 69.4342 73.4306 68.5774 72.6946L64.8047 69.3973L66.2517 68.5616C67.6211 67.7713 67.7426 65.8316 66.486 64.8625L57.8613 58.2897C58.2069 68.1276 55.7919 79.8142 52.1305 92.3146C51.2049 95.4962 50.1885 98.7305 49.1223 102H49.1179Z" fill="white" stroke="#0F367F" stroke-width="1.5" stroke-linecap="round" stroke-linejoin="round"/>
</svg>
