<svg width="49" height="48" viewBox="0 0 49 48" fill="none" xmlns="http://www.w3.org/2000/svg">
<rect x="0.333984" width="48" height="48" rx="8" fill="#104499"/>
<path fill-rule="evenodd" clip-rule="evenodd" d="M14.8749 22.8879C20.2436 20.6299 23.8236 19.1413 25.6148 18.4221C30.7292 16.3686 31.7919 16.0119 32.4846 16.0001C32.6369 15.9975 32.9776 16.034 33.1982 16.2068C33.3845 16.3528 33.4358 16.5499 33.4603 16.6883C33.4848 16.8266 33.5154 17.1418 33.4911 17.3881C33.214 20.1992 32.0147 27.021 31.4046 30.1694C31.1465 31.5017 30.6382 31.9484 30.1461 31.9921C29.0766 32.0871 28.2645 31.3098 27.2287 30.6543C25.6078 29.6287 24.6921 28.9902 23.1188 27.9893C21.3005 26.8327 22.4792 26.1969 23.5155 25.158C23.7866 24.8861 28.4987 20.7487 28.5899 20.3733C28.6013 20.3264 28.6119 20.1514 28.5042 20.059C28.3965 19.9666 28.2376 19.9982 28.1229 20.0234C27.9604 20.059 25.371 21.7111 20.3549 24.9798C19.6199 25.467 18.9542 25.7044 18.3577 25.6919C17.7001 25.6782 16.4353 25.333 15.495 25.038C14.3417 24.6761 13.425 24.4847 13.5048 23.8701C13.5464 23.55 14.0031 23.2226 14.8749 22.8879Z" fill="#FCFEFF"/>
</svg>
