<svg width="48" height="48" viewBox="0 0 48 48" fill="none" xmlns="http://www.w3.org/2000/svg">
<rect width="48" height="48" rx="8" fill="#104499"/>
<path d="M31.9525 19.9197C31.9647 20.0961 31.9647 20.2724 31.9647 20.4503C31.9647 25.8722 27.8371 32.1253 20.2897 32.1253V32.1221C18.0601 32.1253 15.8769 31.4867 14 30.2825C14.3242 30.3215 14.65 30.341 14.9766 30.3418C16.8243 30.3435 18.6191 29.7235 20.0727 28.5819C18.3169 28.5486 16.7772 27.4038 16.2393 25.7325C16.8544 25.8511 17.4881 25.8267 18.0918 25.6618C16.1775 25.275 14.8003 23.5931 14.8003 21.6398C14.8003 21.622 14.8003 21.6049 14.8003 21.5878C15.3707 21.9055 16.0093 22.0818 16.6626 22.1013C14.8596 20.8964 14.3039 18.4978 15.3926 16.6226C17.4759 19.186 20.5497 20.7444 23.8493 20.9094C23.5186 19.4842 23.9703 17.9908 25.0364 16.989C26.689 15.4355 29.2882 15.5151 30.8418 17.1669C31.7607 16.9858 32.6415 16.6486 33.4475 16.1708C33.1412 17.1206 32.5001 17.9275 31.6437 18.4402C32.457 18.3443 33.2517 18.1265 34 17.7942C33.4491 18.6197 32.7552 19.3388 31.9525 19.9197Z" fill="#FCFEFF"/>
</svg>
