<svg width="1440" height="501" viewBox="0 0 1440 501" fill="none" xmlns="http://www.w3.org/2000/svg">
<g style="mix-blend-mode:overlay">
<path d="M1869.46 3.38364C1697.58 -10.6462 1534.9 57.2672 1389.89 126.13C1244.88 194.994 1092.08 270.017 919.17 272.648C757.93 275.103 609.09 213.81 472 151.735C334.9 89.6747 192.92 23.062 32.2501 12.8757C-116.9 3.42018 -270.69 47.3951 -371.45 128.315" stroke="#2088FF" stroke-width="1.5" stroke-miterlimit="10"/>
<path opacity="0.96" d="M-347.71 149.696C-248.31 70.8951 -97.71 27.9286 48.53 36.6535C146.05 42.47 236.73 69.2291 323.66 103.047C377.15 123.851 429.22 147.321 480.6 170.193C615.52 230.244 761.69 289.776 919.84 287.628C1089.36 285.311 1239.63 212.948 1382.2 146.006C1524.77 79.0646 1684.06 12.5396 1851.68 24.2677" stroke="#2088FF" stroke-width="1.5" stroke-miterlimit="10"/>
<path opacity="0.93" d="M-323.98 171.077C-225.92 94.4025 -78.51 52.4444 64.81 60.4385C160.37 65.7728 249.42 91.3554 334.86 123.887C387.45 143.902 438.66 166.554 489.21 188.658C621.96 246.7 765.46 304.463 920.53 302.615C1086.67 300.62 1234.41 230.916 1374.53 165.896C1514.65 100.877 1670.56 35.7474 1833.92 45.1664" stroke="#2088FF" stroke-width="1.5" stroke-miterlimit="10"/>
<path opacity="0.89" d="M-300.25 192.458C-203.53 117.91 -59.31 76.9601 81.09 84.2235C174.7 89.0682 262.12 113.474 346.06 144.727C397.75 163.96 448.11 185.779 497.82 207.116C628.41 263.141 769.22 319.136 921.21 317.594C1083.96 315.921 1229.17 248.877 1366.84 185.772C1504.51 122.674 1657.04 58.9332 1816.15 66.0504" stroke="#2088FF" stroke-width="1.5" stroke-miterlimit="10"/>
<path opacity="0.86" d="M-276.52 213.839C-181.15 141.41 -40.12 101.476 97.36 108.001C189.01 112.356 274.8 135.586 357.25 165.56C408.04 184.004 457.54 204.997 506.42 225.567C634.84 279.575 772.98 333.809 921.88 332.567C1081.25 331.215 1223.92 266.824 1359.15 205.648C1494.37 144.472 1643.52 82.1263 1798.37 86.9345" stroke="#2088FF" stroke-width="1.5" stroke-miterlimit="10"/>
<path opacity="0.82" d="M-252.79 235.22C-158.77 164.917 -20.93 125.992 113.64 131.786C203.34 135.659 287.5 157.705 368.45 186.401C418.34 204.055 466.98 224.23 515.03 244.025C641.28 296.024 776.74 348.482 922.56 347.547C1078.54 346.516 1218.69 284.785 1351.47 225.523C1484.25 166.269 1630.01 105.312 1780.6 107.819" stroke="#2088FF" stroke-width="1.5" stroke-miterlimit="10"/>
<path opacity="0.78" d="M-229.06 256.601C-136.38 188.417 -1.73004 150.5 129.92 155.571C217.66 158.955 300.19 179.824 379.65 207.241C428.64 224.113 476.43 243.455 523.64 262.483C647.73 312.465 780.51 363.162 923.24 362.527C1075.83 361.818 1213.45 302.746 1343.78 245.406C1474.11 188.067 1616.49 128.513 1762.82 128.71" stroke="#2088FF" stroke-width="1.5" stroke-miterlimit="10"/>
<path opacity="0.75" d="M-205.33 277.982C-114 211.925 17.4599 175.016 146.19 179.349C231.98 182.25 312.88 201.943 390.84 228.074C438.93 244.157 485.86 262.673 532.24 280.934C654.16 328.899 784.26 377.828 923.91 377.506C1073.12 377.119 1208.21 320.7 1336.09 265.282C1463.97 209.864 1602.97 151.698 1745.05 149.594" stroke="#2088FF" stroke-width="1.5" stroke-miterlimit="10"/>
<path opacity="0.71" d="M-181.6 299.363C-91.6199 235.425 36.6601 199.532 162.47 203.134C246.31 205.545 325.57 224.062 402.04 248.914C449.22 264.208 495.3 281.906 540.85 299.392C660.6 345.34 788.03 392.508 924.6 392.486C1070.42 392.421 1202.98 338.661 1328.42 285.165C1453.85 231.669 1589.47 174.899 1727.29 170.485" stroke="#2088FF" stroke-width="1.5" stroke-miterlimit="10"/>
<path opacity="0.68" d="M-157.87 320.744C-69.2299 258.932 55.8501 224.047 178.75 226.912C260.63 228.834 338.26 246.174 413.24 269.747C459.52 284.259 504.75 301.124 549.46 317.843C667.05 361.781 791.79 407.174 925.28 407.459C1067.72 407.715 1197.74 356.615 1320.74 305.033C1443.72 253.459 1575.96 198.085 1709.52 191.362" stroke="#2088FF" stroke-width="1.5" stroke-miterlimit="10"/>
<path opacity="0.64" d="M-134.14 342.125C-46.8499 282.432 75.0501 248.556 195.02 250.697C274.95 252.136 350.95 268.293 424.43 290.587C469.81 304.31 514.18 320.349 558.06 336.308C673.48 378.23 795.54 421.861 925.95 422.446C1065 423.023 1192.5 374.576 1313.04 324.924C1433.58 275.271 1562.43 221.285 1691.73 212.261" stroke="#2088FF" stroke-width="1.5" stroke-miterlimit="10"/>
<path opacity="0.6" d="M-110.41 363.506C-24.4599 305.939 94.2401 273.072 211.3 274.482C289.27 275.432 363.64 290.412 435.63 311.427C480.11 324.361 523.62 339.575 566.67 354.766C679.92 394.671 799.31 436.534 926.63 437.426C1062.3 438.325 1187.26 392.537 1305.36 344.807C1423.45 297.076 1548.92 244.486 1673.96 233.159" stroke="#2088FF" stroke-width="1.5" stroke-miterlimit="10"/>
<path opacity="0.57" d="M-86.6799 384.887C-2.07993 329.447 113.44 297.587 227.58 298.26C303.6 298.72 376.34 312.523 446.83 332.26C490.41 344.412 533.07 358.8 575.28 373.217C686.37 411.105 803.07 451.207 927.31 452.398C1059.59 453.619 1182.03 410.491 1297.68 364.675C1413.32 318.866 1535.41 267.664 1656.2 254.036" stroke="#2088FF" stroke-width="1.5" stroke-miterlimit="10"/>
<path opacity="0.53" d="M-62.95 406.268C20.3 352.947 132.63 322.103 243.85 322.045C317.91 322.023 389.02 334.65 458.02 353.093C500.7 364.456 542.5 378.018 583.88 391.668C692.8 427.546 806.83 465.873 927.98 467.371C1056.88 468.913 1176.78 428.438 1289.98 384.551C1403.17 340.663 1521.88 290.857 1638.41 274.92" stroke="#2088FF" stroke-width="1.5" stroke-miterlimit="10"/>
<path opacity="0.5" d="M-39.22 427.649C42.69 376.454 151.83 346.611 260.13 345.83C332.24 345.318 401.72 356.769 469.22 373.933C511 384.514 551.94 397.243 592.5 410.126C699.25 443.988 810.6 480.553 928.68 482.358C1054.19 484.221 1171.56 446.406 1282.32 404.434C1393.07 362.468 1508.39 314.05 1620.66 295.812" stroke="#2088FF" stroke-width="1.5" stroke-miterlimit="10"/>
<path opacity="0.46" d="M-15.49 449.03C65.07 399.954 171.02 371.127 276.41 369.607C346.56 368.606 414.41 378.88 480.42 394.766C521.3 404.558 561.39 416.469 601.11 428.577C705.69 460.422 814.37 495.219 929.36 497.33C1051.48 499.515 1166.33 464.36 1274.64 424.309C1382.94 384.266 1494.88 337.244 1602.89 316.696" stroke="#2088FF" stroke-width="1.5" stroke-miterlimit="10"/>
<path opacity="0.42" d="M8.23999 470.411C87.45 423.462 190.22 395.643 292.68 393.392C360.88 391.909 427.1 400.999 491.61 415.606C531.58 424.609 570.82 435.694 609.71 447.035C712.13 476.863 818.12 509.899 930.03 512.31C1048.77 514.817 1161.08 482.314 1266.94 444.185C1372.79 406.056 1481.35 360.437 1585.1 337.58" stroke="#2088FF" stroke-width="1.5" stroke-miterlimit="10"/>
<path opacity="0.39" d="M31.97 491.792C109.84 446.962 209.41 420.159 308.96 417.17C375.2 415.197 439.79 423.111 502.81 436.439C541.88 444.66 580.26 454.912 618.32 465.493C718.57 493.311 821.89 524.572 930.71 527.29C1046.06 530.118 1155.85 500.275 1259.26 464.068C1362.66 427.861 1467.84 383.63 1567.34 358.471" stroke="#2088FF" stroke-width="1.5" stroke-miterlimit="10"/>
<path opacity="0.35" d="M55.7002 513.18C132.22 470.476 228.61 444.675 325.24 440.962C389.53 438.5 452.48 445.237 514.01 457.287C552.18 464.718 589.71 474.152 626.93 483.958C725.01 509.76 825.65 539.259 931.39 542.277C1043.36 545.427 1150.61 518.244 1251.58 483.951C1352.53 449.665 1454.33 406.83 1549.57 379.363" stroke="#2088FF" stroke-width="1.5" stroke-miterlimit="10"/>
<path opacity="0.32" d="M79.4399 534.561C154.61 493.984 247.81 469.19 341.52 464.747C403.85 461.803 465.18 467.363 525.21 478.127C562.48 484.769 599.15 493.377 635.54 502.416C731.46 526.201 829.42 553.932 932.07 557.257C1040.65 560.728 1145.38 536.198 1243.9 503.834C1342.41 471.47 1440.82 430.023 1531.8 400.254" stroke="#2088FF" stroke-width="1.5" stroke-miterlimit="10"/>
<path opacity="0.28" d="M103.17 555.942C177 517.484 267.01 493.706 357.8 488.525C418.18 485.091 477.87 489.475 536.41 498.96C572.78 504.82 608.59 512.595 644.15 520.867C737.9 542.635 833.18 568.605 932.75 572.237C1037.95 576.029 1140.14 554.159 1236.21 523.71C1332.27 493.268 1427.3 453.217 1514.02 421.138" stroke="#2088FF" stroke-width="1.5" stroke-miterlimit="10"/>
<path opacity="0.24" d="M126.9 577.323C199.38 540.991 286.2 518.222 374.08 512.31C432.5 508.386 490.57 511.594 547.61 519.8C583.08 524.871 618.04 531.821 652.76 539.325C744.34 559.084 836.95 583.278 933.44 587.217C1035.25 591.331 1134.91 572.113 1228.54 543.592C1322.15 515.072 1413.8 476.41 1496.26 442.029" stroke="#2088FF" stroke-width="1.5" stroke-miterlimit="10"/>
<path opacity="0.21" d="M150.63 598.704C221.77 564.491 305.4 542.73 390.35 536.095C446.82 531.689 503.25 533.713 558.8 540.64C593.37 544.922 627.47 551.053 661.36 557.783C750.78 575.525 840.7 597.958 934.11 602.196C1032.53 606.632 1129.67 590.074 1220.85 563.468C1312.01 536.87 1400.28 499.603 1478.49 462.913" stroke="#2088FF" stroke-width="1.5" stroke-miterlimit="10"/>
<path opacity="0.17" d="M174.36 620.085C244.15 587.998 324.59 567.246 406.63 559.873C461.14 554.977 515.95 555.825 570 561.473C603.67 564.973 636.91 570.271 669.97 576.234C757.22 591.959 844.47 612.624 934.79 617.169C1029.83 621.926 1124.43 608.028 1213.16 583.344C1301.87 558.667 1386.76 522.789 1460.71 483.805" stroke="#2088FF" stroke-width="1.5" stroke-miterlimit="10"/>
</g>
</svg>
