<svg width="140" height="40" viewBox="0 0 140 40" fill="none" xmlns="http://www.w3.org/2000/svg">
<g clip-path="url(#clip0_986_22926)">
<path fill-rule="evenodd" clip-rule="evenodd" d="M20 40C31.0466 40 40 31.0472 40 20C40 8.95526 31.0466 0 20 0C8.95341 0 0 8.95526 0 20C0 31.0447 8.95341 40 20 40ZM17.47 20.6519L25.8957 13.164C26.2013 12.8938 26.4891 12.6633 26.7668 12.4501L29.5847 10.1252C28.249 9.61953 26.0674 9.32457 23.7167 11.1786L16.0359 18.0766C15.5435 18.4657 14.7507 18.8474 14.074 18.8474C12.4707 18.8474 11.1729 17.5486 11.1729 15.945C11.1729 14.3413 12.4732 13.0425 14.074 13.0425C15.4223 13.0425 16.2581 13.6622 16.8413 15.0229L19.1542 13.1218C18.432 11.7734 16.9625 10.14 14.074 10.14C10.8699 10.14 8.27171 12.7376 8.27171 15.9425C8.27171 19.1473 10.8699 21.7449 14.074 21.7449C15.3415 21.7499 16.5156 21.3409 17.47 20.6519ZM22.4164 19.3481L13.9907 26.836C13.6851 27.1062 13.3973 27.3367 13.1196 27.5499L10.3017 29.8748C11.6374 30.3805 13.819 30.6754 16.1697 28.8214L23.848 21.9234C24.3404 21.5343 25.1332 21.1526 25.8099 21.1526C27.4132 21.1526 28.711 22.4514 28.711 24.055C28.711 25.6587 27.4107 26.9575 25.8099 26.9575C24.4616 26.9575 23.6258 26.3378 23.0426 24.9771L20.7297 26.8782C21.4518 28.2265 22.9214 29.86 25.8099 29.86C29.014 29.86 31.6122 27.2624 31.6122 24.0575C31.6122 20.8526 29.014 18.2551 25.8099 18.2551C24.5424 18.2526 23.3708 18.6591 22.4164 19.3481Z" fill="#104499"/>
<path d="M54.3464 20.8113L50 11.5586H53.4884L54.7768 14.8622C55.1617 15.9385 55.5386 16.9376 55.9503 18.0512H56.0385C56.4501 16.9376 56.8618 15.9412 57.2574 14.8622L58.5458 11.5586H61.954L57.6076 20.8113V25.9398H54.3464V20.8113V20.8113Z" fill="#1D1E22"/>
<path fill-rule="evenodd" clip-rule="evenodd" d="M64.8517 10C63.7584 10 62.9672 10.7033 62.9672 11.6971C62.9672 12.6828 63.7611 13.3915 64.8517 13.3915C65.945 13.3915 66.7362 12.6828 66.7362 11.6971C66.7362 10.7007 65.9423 10 64.8517 10ZM66.4769 14.9927H63.2211V25.9398H66.4769V14.9927Z" fill="#1D1E22"/>
<path fill-rule="evenodd" clip-rule="evenodd" d="M73.8733 14.729C71.235 14.729 68.6929 16.919 68.6929 20.4703C68.6929 24.0936 71.1174 26.2063 74.2502 26.2063C75.552 26.2063 77.0222 25.7481 78.1476 24.9728L77.0703 23.0173C76.2711 23.4835 75.5253 23.7339 74.6939 23.7339C73.2264 23.7339 72.1358 23.0039 71.8444 21.4161H78.4149C78.479 21.1523 78.5512 20.5662 78.5512 19.9828C78.5512 16.9962 77.0008 14.729 73.8733 14.729ZM73.9455 17.2014C75.2446 17.2014 75.7712 18.0672 75.7712 19.2715H71.807C72.0289 17.8887 72.9164 17.2014 73.9455 17.2014Z" fill="#1D1E22"/>
<path d="M80.7993 22.5378V10.4824H84.0551V22.671C84.0551 23.3664 84.3786 23.5875 84.6432 23.5875C84.7688 23.5875 84.8571 23.5875 85.0415 23.5422L85.4291 25.9347C85.0709 26.0892 84.5363 26.2037 83.7958 26.2037C81.5611 26.2064 80.7993 24.7544 80.7993 22.5378Z" fill="#1D1E22"/>
<path fill-rule="evenodd" clip-rule="evenodd" d="M91.12 14.7291C88.8078 14.7291 86.5651 16.8898 86.5651 20.4704C86.5651 24.0458 88.3293 26.2064 91.0558 26.2091C92.1144 26.2091 93.2023 25.6309 93.9775 24.8583H94.0577L94.2929 25.9427H96.9473V10.4824H93.6942V14.2123L93.8118 15.8721C93.0713 15.1794 92.3309 14.7291 91.12 14.7291ZM93.6969 18.0753V22.5698C93.1569 23.2891 92.5982 23.5502 91.9059 23.5529C90.6469 23.5529 89.9011 22.5858 89.9011 20.4358C89.9011 18.3524 90.826 17.3826 91.8792 17.3826C92.4753 17.3826 93.1222 17.5611 93.6969 18.0753Z" fill="#1D1E22"/>
<path fill-rule="evenodd" clip-rule="evenodd" d="M111.101 11.5586H107.199L102.665 25.9398H106.001L106.892 22.5164H111.292L112.179 25.9398H115.632L111.101 11.5586ZM110.636 19.9881L110.291 18.656C110.043 17.7632 109.8 16.77 109.56 15.7863C109.413 15.1848 109.267 14.5868 109.121 14.0176H109.032C109.02 14.0728 109.007 14.1283 108.994 14.1839C108.654 15.6581 108.283 17.2696 107.896 18.656L107.55 19.9881H110.636Z" fill="#1D1E22"/>
<path fill-rule="evenodd" clip-rule="evenodd" d="M119.583 14.9925H116.929V29.9998H120.182V26.7921L120.072 25.0604C120.858 25.7904 121.745 26.2034 122.692 26.2034C125.071 26.2034 127.314 24.048 127.314 20.2915C127.314 16.916 125.686 14.7261 123.026 14.7261C121.882 14.7261 120.762 15.3015 119.898 16.0688H119.818L119.583 14.9925ZM122.072 17.3796C123.371 17.3796 123.98 18.3627 123.98 20.3288C123.98 22.5961 123.071 23.5498 121.935 23.5472C121.387 23.5472 120.775 23.3687 120.184 22.8545V18.36C120.826 17.678 121.403 17.3796 122.072 17.3796Z" fill="#1D1E22"/>
<path fill-rule="evenodd" clip-rule="evenodd" d="M132.269 14.9925H129.615V29.9998H132.868V26.7921L132.759 25.0604C133.544 25.7904 134.432 26.2034 135.378 26.2034C137.757 26.2034 140 24.048 140 20.2915C140 16.916 138.372 14.7261 135.712 14.7261C134.568 14.7261 133.448 15.3015 132.585 16.0688H132.505L132.269 14.9925ZM134.755 17.3796C136.054 17.3796 136.664 18.3627 136.664 20.3288C136.664 22.5961 135.758 23.5498 134.619 23.5472C134.071 23.5472 133.459 23.3687 132.868 22.8545V18.36C133.51 17.678 134.087 17.3796 134.755 17.3796Z" fill="#1D1E22"/>
</g>
<defs>
<clipPath id="clip0_986_22926">
<rect width="140" height="40" fill="white"/>
</clipPath>
</defs>
</svg>
